<mxfile host="app.diagrams.net" modified="2021-07-16T03:29:10.854Z" agent="5.0 (Windows NT 10.0; Win64; x64) AppleWebKit/537.36 (KHTML, like Gecko) Chrome/91.0.4472.114 Safari/537.36" etag="HmRdXLuQtEtQbdXAz7dx" version="14.8.1" type="github">
  <diagram id="CuRWy3YOL1RegtawnKoR" name="Page-1">
    <mxGraphModel dx="497" dy="543" grid="1" gridSize="10" guides="1" tooltips="1" connect="1" arrows="1" fold="1" page="1" pageScale="1" pageWidth="827" pageHeight="1169" math="0" shadow="0">
      <root>
        <mxCell id="0" />
        <mxCell id="1" parent="0" />
        <mxCell id="6wvVj7PrTKanJbNM9e0Z-8" value="" style="shape=internalStorage;whiteSpace=wrap;html=1;backgroundOutline=1;fillColor=none;dx=0;dy=40;" vertex="1" parent="1">
          <mxGeometry x="40" y="100" width="120" height="160" as="geometry" />
        </mxCell>
        <mxCell id="6wvVj7PrTKanJbNM9e0Z-9" value="Camera C1" style="text;html=1;strokeColor=none;fillColor=none;align=center;verticalAlign=middle;whiteSpace=wrap;rounded=0;" vertex="1" parent="1">
          <mxGeometry x="65" y="110" width="70" height="20" as="geometry" />
        </mxCell>
        <mxCell id="6wvVj7PrTKanJbNM9e0Z-10" value="" style="rounded=0;whiteSpace=wrap;html=1;fillColor=none;" vertex="1" parent="1">
          <mxGeometry x="60" y="150" width="60" height="20" as="geometry" />
        </mxCell>
        <mxCell id="6wvVj7PrTKanJbNM9e0Z-14" value="" style="rounded=0;whiteSpace=wrap;html=1;" vertex="1" parent="1">
          <mxGeometry x="70" y="160" width="60" height="20" as="geometry" />
        </mxCell>
        <mxCell id="6wvVj7PrTKanJbNM9e0Z-11" value="Frames" style="rounded=0;whiteSpace=wrap;html=1;" vertex="1" parent="1">
          <mxGeometry x="80" y="170" width="60" height="20" as="geometry" />
        </mxCell>
      </root>
    </mxGraphModel>
  </diagram>
</mxfile>
